<?xml version="1.0" standalone="no"?>
<!DOCTYPE svg PUBLIC "-//W3C//DTD SVG 20010904//EN"
 "http://www.w3.org/TR/2001/REC-SVG-20010904/DTD/svg10.dtd">
<svg version="1.0" xmlns="http://www.w3.org/2000/svg"
 width="390.000000pt" height="390.000000pt" viewBox="0 0 390.000000 390.000000"
 preserveAspectRatio="xMidYMid meet">
<metadata>
Created by potrace 1.14, written by Peter Selinger 2001-2017
</metadata>
<g transform="translate(0.000000,390.000000) scale(0.100000,-0.100000)"
fill="#000000" stroke="none">
<path d="M2080 3338 c-56 -21 -182 -97 -194 -117 -13 -20 -27 -12 -16 8 29 56
-5 121 -64 121 -72 0 -96 -12 -164 -80 -68 -68 -86 -88 -93 -105 -16 -39 -74
-116 -77 -104 -7 22 -44 59 -59 59 -24 0 -61 -46 -73 -91 -11 -39 -16 -193 -8
-230 2 -9 -4 -13 -17 -12 -61 8 -106 -32 -130 -114 -19 -64 -28 -234 -16 -301
8 -40 7 -44 -23 -65 -72 -51 -106 -116 -102 -197 7 -130 107 -218 262 -229 7
-1 19 -20 29 -43 9 -24 23 -50 30 -58 8 -8 13 -19 13 -24 -1 -18 107 -129 158
-163 l54 -36 -1 -141 0 -141 -91 -45 c-124 -61 -279 -166 -359 -242 -184 -176
-279 -362 -349 -685 -24 -112 -28 -152 -12 -161 5 -4 535 -7 1177 -7 1219 0
1193 -1 1180 39 -2 6 -6 28 -9 48 -15 101 -55 253 -98 368 -19 51 -94 196
-130 249 -51 75 -206 223 -298 283 -47 30 -131 78 -187 107 l-102 51 2 137 2
138 41 22 c85 47 170 146 217 252 23 52 25 55 65 57 118 7 231 116 232 224 0
87 -58 178 -137 215 -34 16 -35 19 -29 57 27 168 28 330 2 410 -23 70 -74 125
-133 141 l-42 11 30 41 c55 77 52 177 -7 204 -32 14 -120 6 -181 -17 l-51 -19
14 33 c41 99 -12 163 -141 170 -42 2 -76 -4 -115 -18z"/>
</g>
</svg>
