<?xml version="1.0" standalone="no"?>
<!DOCTYPE svg PUBLIC "-//W3C//DTD SVG 20010904//EN"
 "http://www.w3.org/TR/2001/REC-SVG-20010904/DTD/svg10.dtd">
<svg version="1.0" xmlns="http://www.w3.org/2000/svg"
 width="1040.000000pt" height="649.000000pt" viewBox="0 0 1040.000000 649.000000"
 preserveAspectRatio="xMidYMid meet">

<g transform="translate(0.000000,649.000000) scale(0.100000,-0.100000)"
fill="#000000" stroke="none">
<path d="M3762 6404 c-69 -55 -149 -183 -154 -250 -4 -55 20 -52 52 7 14 25
41 68 61 95 63 85 105 174 82 174 -5 0 -23 -12 -41 -26z"/>
<path d="M7619 6254 c-18 -21 0 -48 35 -52 22 -3 26 1 26 20 0 43 -36 62 -61
32z"/>
<path d="M5933 5973 c21 -106 75 -253 93 -253 34 0 0 169 -50 247 -26 41 -50
44 -43 6z"/>
<path d="M8757 5913 c-94 -99 -129 -163 -90 -163 29 0 133 134 133 173 0 24
-13 21 -43 -10z"/>
<path d="M5373 5864 c-4 -11 2 -23 16 -33 23 -18 19 -31 -10 -31 -12 0 -19 9
-21 27 -2 14 -8 28 -15 30 -17 6 -26 -38 -14 -70 9 -23 16 -27 49 -27 45 0 72
23 72 63 0 42 -63 76 -77 41z"/>
<path d="M3962 5731 c-8 -4 -12 -19 -10 -32 2 -19 9 -24 33 -24 35 0 45 24 20
49 -19 18 -24 19 -43 7z"/>
<path d="M1626 5713 c-13 -14 -4 -37 42 -109 79 -125 131 -194 147 -194 18 0
18 -4 -2 56 -17 51 -89 171 -127 212 -26 29 -51 44 -60 35z"/>
<path d="M8977 5404 c-14 -14 -7 -44 14 -54 31 -17 51 -5 47 27 -2 21 -9 29
-28 31 -14 2 -29 0 -33 -4z"/>
<path d="M6813 5383 c-4 -9 -1 -19 5 -21 7 -2 12 -8 12 -14 0 -6 -8 -4 -18 5
-19 17 -32 14 -32 -8 0 -20 48 -65 70 -65 49 0 78 71 42 103 -24 22 -71 22
-79 0z"/>
<path d="M6413 5354 c-13 -33 35 -70 59 -46 6 6 8 22 4 36 -5 19 -13 26 -32
26 -14 0 -27 -7 -31 -16z"/>
<path d="M2150 5308 c1 -49 15 -73 53 -87 58 -22 100 24 80 86 -11 31 -53 43
-78 23 -12 -10 -16 -9 -21 4 -13 34 -34 17 -34 -26z m100 -26 c0 -4 -4 -13 -9
-21 -7 -10 -13 -11 -30 -2 -27 15 -27 29 2 33 24 4 37 1 37 -10z"/>
<path d="M5317 5259 c-23 -13 -22 -46 2 -59 27 -14 51 -2 51 26 0 29 -28 46
-53 33z"/>
<path d="M4183 5229 c-104 -66 -229 -410 -293 -803 -20 -124 -27 -296 -11
-296 9 0 19 48 66 320 45 255 131 538 199 654 50 86 127 125 140 71 9 -35 -7
-130 -76 -450 -81 -379 -97 -567 -52 -582 16 -5 34 51 34 106 0 71 34 284 85
531 26 128 48 269 52 326 5 94 4 103 -16 123 -27 27 -85 28 -128 0z"/>
<path d="M7983 5193 c-7 -2 -13 -13 -13 -23 0 -10 6 -21 13 -23 10 -4 10 -6 0
-6 -37 -3 4 -81 42 -81 28 0 65 47 65 82 0 45 -57 72 -107 51z m62 -43 c9 -15
-3 -47 -20 -54 -20 -7 -33 43 -14 55 18 11 26 11 34 -1z"/>
<path d="M1377 5164 c-15 -16 -7 -53 14 -59 30 -10 58 19 43 43 -12 18 -45 28
-57 16z"/>
<path d="M3468 5156 c-10 -7 -22 -26 -29 -42 -53 -139 24 -894 102 -987 l18
-22 1 45 c0 25 -11 101 -24 170 -39 202 -50 322 -51 540 0 207 8 257 38 247
54 -17 114 -217 173 -567 45 -272 67 -351 100 -364 20 -8 16 39 -27 299 -74
454 -121 616 -195 674 -30 24 -80 27 -106 7z"/>
<path d="M6412 4923 c-11 -16 -25 -46 -32 -68 -7 -22 -16 -44 -20 -50 -3 -5
-17 -34 -29 -63 -41 -98 3 -91 67 11 57 90 83 197 48 197 -8 0 -23 -12 -34
-27z"/>
<path d="M7543 4934 c-13 -33 35 -70 59 -46 6 6 8 22 4 36 -5 19 -13 26 -32
26 -14 0 -27 -7 -31 -16z"/>
<path d="M8400 4589 c-115 -63 -178 -149 -245 -333 -44 -121 -71 -175 -128
-252 -59 -81 -72 -104 -55 -104 60 0 156 136 219 308 54 150 78 196 128 254
43 48 146 108 186 108 57 0 56 -59 -1 -155 -74 -121 -160 -348 -183 -480 -25
-144 -24 -193 8 -391 38 -232 40 -351 10 -450 -11 -38 -29 -84 -40 -101 -34
-60 25 -31 69 33 12 18 29 61 38 95 22 86 13 280 -21 449 -29 145 -31 240 -9
348 32 153 103 347 171 464 36 62 63 130 63 158 0 10 -12 32 -26 49 -23 27
-32 31 -77 31 -39 0 -66 -8 -107 -31z"/>
<path d="M5690 4435 c0 -8 -9 -15 -20 -15 -27 0 -46 -36 -29 -57 20 -24 56
-34 84 -23 59 23 56 110 -5 110 -20 0 -30 -5 -30 -15z"/>
<path d="M2474 4376 c-10 -26 1 -51 22 -54 30 -4 48 21 34 47 -12 24 -48 28
-56 7z"/>
<path d="M4883 4374 c-9 -24 10 -49 38 -49 27 0 37 28 19 50 -17 20 -49 19
-57 -1z"/>
<path d="M983 4354 c-28 -32 -29 -44 -2 -78 41 -52 119 -25 119 41 0 62 -75
86 -117 37z"/>
<path d="M7372 4270 c-54 -11 -104 -42 -121 -74 -13 -24 -11 -88 4 -133 6 -20
4 -23 -18 -23 -39 0 -92 -29 -111 -60 -22 -38 -20 -112 4 -160 l20 -40 -26 0
c-18 0 -38 -12 -60 -36 -29 -30 -34 -43 -34 -84 0 -40 6 -56 36 -96 23 -29 32
-50 25 -52 -17 -6 -41 -57 -41 -87 0 -69 90 -123 250 -151 172 -29 245 -6 257
84 4 30 10 42 22 42 49 0 121 85 121 143 0 20 7 28 34 37 65 21 105 95 86 160
-7 24 -4 31 14 44 13 8 31 31 40 50 15 32 15 41 4 73 -16 45 -65 96 -118 123
-37 19 -80 27 -80 14 0 -14 25 -50 44 -64 45 -31 96 -83 96 -96 0 -8 -10 -24
-21 -35 -35 -35 -118 -22 -232 35 -165 82 -260 173 -261 249 -1 40 1 43 44 65
107 53 267 8 464 -133 49 -35 86 -45 86 -23 0 19 -101 109 -163 146 -113 68
-267 102 -365 82z m-41 -296 c64 -70 225 -163 326 -189 66 -17 67 -18 83 -68
9 -30 9 -41 -1 -53 -50 -61 -228 -44 -394 36 -143 69 -212 159 -180 236 8 19
15 34 17 34 2 0 21 7 43 15 58 20 78 18 106 -11z m-6 -319 c88 -43 194 -75
252 -75 38 0 43 -3 43 -22 0 -41 -36 -86 -77 -97 -152 -43 -431 64 -459 175
-8 33 8 63 54 95 l37 26 38 -33 c22 -18 72 -49 112 -69z m-120 -194 c69 -31
188 -61 247 -61 46 0 48 -1 48 -28 0 -52 -28 -66 -122 -59 -145 12 -278 64
-278 110 0 17 39 69 49 65 3 -2 29 -14 56 -27z"/>
<path d="M2754 4182 c-6 -4 -14 -24 -18 -44 -5 -30 -3 -39 14 -51 29 -20 57
-11 69 25 11 30 0 68 -19 68 -4 0 -14 2 -22 5 -7 3 -18 1 -24 -3z m34 -53 c-2
-6 -8 -10 -13 -10 -5 0 -11 4 -13 10 -2 6 4 11 13 11 9 0 15 -5 13 -11z"/>
<path d="M3585 4092 c-158 -116 -333 -409 -370 -622 -21 -118 -3 -200 84 -374
121 -246 295 -506 337 -506 8 0 14 2 14 5 0 13 -49 100 -130 230 -250 402
-292 525 -241 695 52 171 164 362 282 482 87 89 106 90 239 13 52 -31 136 -76
185 -101 50 -26 98 -53 108 -62 16 -14 16 -16 0 -34 -44 -49 -214 -56 -333
-14 -131 47 -143 45 -95 -12 26 -31 137 -82 179 -82 56 0 58 -8 15 -73 -58
-89 -109 -197 -109 -230 0 -18 11 -39 31 -59 28 -29 34 -30 88 -25 72 6 130
35 198 100 55 52 123 152 123 181 0 31 -27 15 -85 -50 -97 -110 -251 -197
-291 -164 -25 22 -10 66 57 162 33 48 66 103 74 121 12 29 20 35 57 41 50 8
120 47 143 78 21 31 19 64 -6 89 l-21 21 26 39 c37 55 123 121 154 117 48 -6
63 -44 65 -158 2 -85 5 -105 19 -114 9 -5 21 -7 25 -2 4 4 8 58 7 119 0 120
-12 161 -56 191 -29 20 -81 20 -123 0 -34 -16 -116 -97 -146 -144 l-17 -25
-48 23 c-27 13 -102 55 -167 95 -103 61 -126 71 -175 75 -51 3 -62 0 -97 -26z"/>
<path d="M5985 4060 c-28 -31 -36 -112 -25 -265 16 -217 65 -497 98 -560 l16
-30 9 31 c7 23 -1 86 -28 245 -53 312 -59 542 -12 527 27 -9 55 -116 171 -643
27 -123 60 -242 86 -310 138 -357 143 -387 110 -677 -24 -223 -30 -343 -16
-393 14 -54 24 -7 62 296 45 354 43 392 -31 602 -26 73 -64 182 -85 242 -20
61 -63 229 -95 375 -93 436 -115 512 -157 557 -27 29 -78 31 -103 3z"/>
<path d="M5095 3986 c-54 -71 -54 -214 1 -402 32 -113 116 -342 174 -478 l46
-109 -28 -27 c-26 -27 -28 -34 -28 -115 0 -203 48 -463 108 -585 82 -168 406
-430 532 -430 22 0 40 4 40 9 0 6 -58 44 -128 86 -190 113 -340 253 -397 370
-52 107 -96 364 -94 560 1 118 1 119 16 85 9 -19 20 -80 24 -135 5 -55 13
-121 18 -147 10 -45 30 -88 41 -88 3 0 3 72 2 161 l-4 161 -70 162 c-204 469
-274 740 -223 863 13 30 17 34 30 23 22 -19 81 -145 165 -355 92 -231 205
-463 264 -543 43 -58 107 -105 122 -89 4 4 -6 25 -22 48 -16 22 -53 77 -82
122 -47 72 -51 82 -35 89 90 35 225 -54 302 -199 34 -63 56 -82 75 -63 14 14
-17 75 -88 173 l-56 78 28 10 c60 23 145 -34 217 -146 37 -58 68 -72 80 -36 8
27 -29 83 -99 151 -71 70 -109 90 -166 90 -49 0 -95 -24 -86 -45 3 -8 -11 -3
-31 11 -64 43 -137 55 -186 29 l-27 -14 -29 57 c-15 31 -63 143 -106 247 -176
432 -232 511 -300 421z"/>
<path d="M9396 3888 c-9 -12 -16 -28 -16 -34 0 -14 28 -26 41 -18 5 3 9 0 9
-5 0 -6 -9 -11 -20 -11 -13 0 -20 -7 -20 -20 0 -25 34 -60 58 -60 28 0 62 42
62 77 0 37 -48 93 -78 93 -12 0 -28 -10 -36 -22z"/>
<path d="M1443 3836 c-24 -18 -47 -78 -40 -106 4 -15 -3 -19 -38 -25 -61 -9
-105 -42 -138 -102 -27 -51 -27 -51 -61 -41 -101 31 -168 -81 -200 -336 -24
-185 -30 -318 -16 -377 17 -79 91 -222 163 -319 142 -191 377 -402 377 -339 0
6 -62 73 -138 148 -156 153 -257 293 -314 435 -31 77 -33 87 -32 206 2 208 46
441 95 504 26 33 49 33 81 -1 76 -80 126 -349 74 -401 -21 -22 -49 -1 -112 84
-30 40 -57 74 -61 74 -12 0 8 -84 32 -130 38 -75 102 -112 156 -89 33 13 59
54 59 94 0 34 17 32 25 -4 11 -51 63 -121 101 -137 28 -12 34 -19 28 -32 -4
-9 -9 -29 -12 -44 -8 -47 23 -33 73 32 49 64 64 71 209 99 33 6 76 22 95 36
20 14 59 42 86 60 69 48 75 54 75 70 0 19 -33 19 -69 0 l-28 -14 -6 75 c-6 80
-30 136 -61 142 -16 4 -18 0 -11 -35 25 -119 20 -209 -11 -244 -21 -23 -74
-39 -135 -39 l-46 0 -6 113 c-6 124 -33 232 -67 262 -20 18 -20 18 -20 -7 0
-14 9 -67 20 -119 11 -52 20 -128 20 -170 0 -93 -15 -113 -85 -111 -56 0 -69
11 -91 70 -32 88 -54 135 -69 146 -8 6 -22 38 -30 71 -9 33 -27 84 -40 114
-29 62 -30 82 -11 119 24 47 62 74 108 79 42 5 44 3 96 -57 69 -78 167 -130
259 -138 68 -5 196 23 190 42 -2 6 -45 14 -98 19 -170 14 -287 72 -338 169
-26 48 -24 94 5 105 8 3 74 -16 147 -41 73 -26 188 -58 256 -71 69 -14 134
-31 146 -39 46 -30 99 -192 129 -399 30 -200 21 -267 -70 -502 -25 -66 -64
-166 -85 -222 -41 -107 -59 -193 -42 -193 21 0 201 439 244 594 23 86 24 174
3 338 -30 235 -84 389 -151 434 -18 12 -63 27 -100 33 -94 16 -233 55 -325 90
-100 39 -165 48 -195 27z"/>
<path d="M4445 3777 c-117 -62 -315 -284 -386 -432 -36 -75 -40 -154 -9 -185
42 -42 148 -19 233 51 46 38 159 188 151 200 -12 20 -38 5 -114 -65 -101 -95
-164 -138 -203 -140 -31 -1 -32 0 -30 37 9 149 334 507 460 507 32 0 53 -38
59 -107 8 -89 14 -123 23 -123 27 0 42 160 20 217 -31 82 -100 96 -204 40z"/>
<path d="M3613 3743 c-23 -66 -69 -167 -98 -215 -34 -54 -44 -88 -27 -88 30 0
162 238 162 292 0 32 -27 39 -37 11z"/>
<path d="M4557 3353 c-2 -5 -17 -46 -32 -93 -62 -195 -188 -410 -335 -570 -91
-99 -115 -134 -105 -150 11 -17 52 19 154 134 119 134 192 242 265 391 90 183
119 295 77 295 -11 0 -22 -3 -24 -7z"/>
<path d="M7333 3204 c-3 -8 -1 -26 5 -38 19 -41 183 -205 251 -250 161 -108
401 -180 401 -121 0 9 -27 20 -77 31 -157 35 -336 149 -464 296 -89 103 -104
114 -116 82z"/>
<path d="M500 2925 c-18 -22 -1 -50 31 -50 20 0 24 5 24 30 0 23 -5 31 -21 33
-11 2 -27 -4 -34 -13z"/>
<path d="M8390 2877 c0 -26 93 -239 142 -327 70 -124 162 -277 184 -307 l24
-32 -38 -31 c-50 -42 -198 -112 -302 -144 -84 -25 -253 -51 -269 -42 -13 8
-37 105 -76 301 -50 253 -102 395 -147 395 -23 0 -23 -22 1 -68 27 -53 57
-156 91 -309 17 -73 30 -137 30 -142 0 -5 -13 -11 -28 -14 -39 -8 -118 -81
-132 -122 -25 -76 43 -111 215 -109 191 2 417 64 652 180 157 77 223 133 223
188 0 26 -7 40 -27 56 -24 19 -37 21 -113 17 -47 -2 -94 -6 -105 -8 -16 -3
-31 18 -87 121 -37 69 -98 191 -134 273 -51 112 -71 147 -86 147 -12 0 -18 -7
-18 -23z m-350 -765 c0 -5 -20 -22 -45 -40 -54 -38 -60 -26 -7 17 38 31 52 37
52 23z"/>
<path d="M4132 2387 c-18 -89 -34 -192 -38 -229 -6 -65 -7 -66 -30 -58 -13 5
-74 19 -136 31 -115 23 -334 32 -388 17 l-26 -7 23 92 c36 142 43 257 15 257
-5 0 -26 -69 -47 -152 -21 -84 -73 -279 -117 -433 -154 -544 -255 -979 -293
-1259 -18 -129 -25 -339 -12 -352 14 -15 26 19 32 96 3 41 10 98 16 125 5 28
20 119 34 203 31 195 81 417 155 696 59 220 183 632 194 643 12 12 207 15 316
4 197 -19 397 -78 446 -132 15 -17 16 -36 11 -171 -7 -180 -70 -691 -132
-1073 -75 -456 -87 -600 -55 -620 12 -8 16 9 45 205 15 96 51 327 81 513 94
585 143 1020 127 1127 -8 52 -11 57 -61 91 -30 19 -76 44 -103 54 -46 18 -49
21 -49 56 0 21 9 97 21 171 31 194 34 254 16 261 -12 4 -20 -25 -45 -156z"/>
<path d="M9020 2222 c14 -19 24 -53 30 -108 7 -64 23 -113 85 -264 120 -290
196 -503 255 -712 36 -125 46 -144 66 -127 9 7 21 6 43 -5 16 -9 35 -16 41
-16 6 0 42 -18 78 -39 117 -68 259 -92 286 -49 16 26 -3 39 -75 48 -117 15
-216 65 -319 164 -61 58 -62 60 -110 205 -47 143 -101 278 -234 591 -45 105
-70 178 -76 224 -12 83 -32 115 -73 116 -16 0 -16 -2 3 -28z"/>
<path d="M1940 2161 c0 -45 39 -304 75 -501 13 -74 31 -175 38 -223 l14 -88
-46 -23 c-172 -87 -331 -126 -506 -126 l-103 0 4 43 c2 23 8 130 13 237 27
516 25 603 -15 649 l-23 26 5 -125 c6 -118 2 -195 -27 -637 l-13 -182 -50 -3
-51 -4 40 -19 c61 -30 364 -28 525 2 203 39 381 106 388 147 3 15 -1 18 -25
13 -15 -3 -38 -8 -50 -12 -20 -6 -23 -4 -23 18 0 14 -13 110 -29 214 -17 103
-41 267 -55 363 -35 235 -43 270 -67 270 -15 0 -19 -7 -19 -39z"/>
<path d="M3670 2010 c-11 -7 2 -10 43 -10 32 0 90 -7 129 -16 50 -11 73 -13
81 -5 13 13 4 16 -96 30 -95 13 -137 14 -157 1z"/>
<path d="M8745 1940 c-127 -62 -308 -123 -452 -151 -76 -15 -113 -27 -113 -36
0 -19 90 -17 201 6 223 47 509 168 509 217 0 24 -41 14 -145 -36z"/>
<path d="M8480 1924 c0 -8 5 -12 10 -9 6 3 10 10 10 16 0 5 -4 9 -10 9 -5 0
-10 -7 -10 -16z"/>
<path d="M7844 1888 c3 -19 19 -44 37 -60 30 -26 32 -29 24 -75 -21 -118 2
-206 114 -438 157 -325 324 -604 421 -703 132 -133 420 -244 525 -202 28 11
28 13 10 20 -11 5 -35 9 -53 9 -76 2 -228 63 -327 131 -91 63 -187 192 -337
455 -112 197 -148 268 -208 421 -59 147 -80 226 -80 307 0 53 -3 61 -32 89
-18 16 -44 41 -58 54 -34 32 -44 30 -36 -8z"/>
<path d="M8310 1876 c0 -9 5 -16 10 -16 6 0 10 4 10 9 0 6 -4 13 -10 16 -5 3
-10 -1 -10 -9z"/>
<path d="M8115 1840 c-7 -12 2 -30 16 -30 12 0 12 27 0 35 -5 3 -12 1 -16 -5z"/>
<path d="M3970 1809 c0 -5 -4 -8 -9 -4 -12 7 -30 -25 -24 -42 3 -7 11 -13 19
-13 8 0 14 -5 14 -10 0 -13 38 10 44 26 3 7 -3 22 -13 33 -20 23 -31 27 -31
10z"/>
<path d="M3680 1797 c0 -10 -6 -17 -14 -15 -8 2 -15 -1 -14 -6 0 -5 -6 -13
-14 -18 -10 -8 -10 -11 0 -15 6 -2 10 -9 6 -14 -3 -5 4 -9 15 -9 13 0 21 -7
21 -17 0 -15 1 -15 13 2 9 11 19 15 27 10 10 -6 12 -4 7 8 -3 9 -2 17 3 19 5
2 7 13 4 25 -4 13 -11 20 -16 17 -5 -3 -16 2 -23 12 -14 18 -14 18 -15 1z"/>
<path d="M6436 1728 c3 -29 24 -105 46 -168 22 -63 43 -130 48 -147 8 -34 7
-35 -35 -37 -25 -1 -31 -33 -15 -81 13 -40 46 -54 89 -39 25 10 27 7 99 -131
41 -77 108 -201 150 -275 43 -74 78 -138 80 -142 5 -11 -163 -117 -253 -158
-105 -49 -168 -66 -273 -75 l-80 -7 -30 58 c-62 123 -140 313 -172 419 -31
103 -52 145 -72 145 -18 0 -6 -62 41 -201 83 -248 238 -572 322 -672 23 -28
29 -30 43 -18 9 8 14 21 11 30 -4 15 4 16 63 13 39 -2 111 4 173 16 86 15 114
25 145 49 44 35 83 49 164 58 30 4 69 15 87 25 19 11 35 15 38 9 13 -20 35 -8
35 20 0 18 -27 70 -80 151 -44 68 -80 126 -80 130 0 4 9 15 20 25 28 26 26 55
-4 55 -13 0 -29 -7 -36 -15 -11 -14 -21 -3 -68 77 -117 199 -255 460 -263 501
-6 23 -18 54 -29 69 -23 31 -68 143 -98 240 -40 129 -78 172 -66 76z"/>
<path d="M5884 1723 c3 -16 15 -82 26 -148 12 -66 25 -130 30 -142 12 -28 56
-33 45 -5 -3 9 -15 75 -25 145 -19 129 -37 177 -66 177 -13 0 -15 -6 -10 -27z"/>
<path d="M6665 1706 c-12 -9 -16 -20 -12 -35 7 -29 -1 -51 -19 -51 -15 0 -19
-28 -6 -46 11 -17 48 -34 76 -34 37 0 76 39 83 82 5 32 1 41 -25 68 -33 32
-67 38 -97 16z"/>
<path d="M2640 1529 c-7 -11 -9 -27 -6 -35 7 -17 36 -19 36 -2 0 9 3 9 12 0
10 -9 9 -16 -4 -28 -15 -16 -18 -16 -33 0 -20 20 -35 21 -35 2 0 -43 80 -64
100 -27 25 47 5 111 -35 111 -14 0 -29 -8 -35 -21z"/>
<path d="M5788 1418 c-72 -59 -61 -168 17 -168 41 0 64 28 72 87 8 65 -47 115
-89 81z"/>
<path d="M3450 1354 c0 -11 -6 -14 -20 -9 -15 5 -18 3 -14 -9 4 -9 1 -16 -6
-16 -9 0 -10 -3 -1 -13 6 -8 8 -17 4 -20 -3 -4 3 -7 15 -7 12 0 22 -6 22 -12
1 -9 5 -8 13 3 7 9 18 14 26 11 8 -3 11 0 7 6 -3 6 0 13 6 16 10 5 10 7 1 12
-7 3 -9 13 -6 21 5 12 2 15 -10 10 -11 -4 -17 -1 -17 8 0 8 -4 15 -10 15 -5 0
-10 -7 -10 -16z"/>
<path d="M5978 1338 c0 -7 -2 -17 -3 -23 -2 -5 -3 -14 -4 -19 0 -6 -7 -2 -14
9 -20 26 -37 10 -37 -34 0 -71 58 -110 125 -85 47 18 56 118 12 149 -26 18
-76 20 -79 3z"/>
<path d="M6247 1343 c-4 -3 -7 -17 -7 -30 0 -24 -15 -32 -23 -10 -3 9 -9 8
-22 -5 -12 -11 -20 -37 -23 -71 -4 -50 -2 -56 24 -76 37 -29 79 -22 117 19 37
42 39 119 2 155 -23 24 -54 32 -68 18z"/>
<path d="M2257 1294 c33 -59 46 -219 20 -245 -19 -20 -355 -131 -467 -156
-118 -25 -398 -23 -519 3 -79 18 -85 21 -93 49 -11 37 -2 132 18 186 19 55 18
69 -4 69 -25 0 -51 -30 -68 -77 -16 -45 -18 -190 -4 -229 9 -22 8 -29 -4 -36
-29 -16 -41 -115 -40 -343 0 -227 13 -342 52 -459 13 -39 22 -52 40 -54 19 -3
22 1 22 28 0 26 6 33 38 47 20 9 60 18 88 21 43 3 62 -1 120 -29 62 -30 77
-33 159 -33 105 0 162 14 205 50 33 29 41 29 165 0 88 -20 145 -20 218 -1 70
18 112 44 198 122 55 50 72 60 93 56 24 -5 26 -3 26 31 0 42 -34 241 -56 331
-27 110 -85 279 -114 332 -25 47 -27 57 -18 95 21 93 -13 252 -60 277 -37 20
-41 11 -15 -35z"/>
<path d="M1336 1034 c-8 -32 1 -64 18 -64 8 0 13 15 13 45 0 50 -20 62 -31 19z"/>
<path d="M1484 1036 c-8 -21 4 -52 15 -40 15 15 17 47 4 51 -7 3 -16 -2 -19
-11z"/>
<path d="M3923 1015 c-6 -11 -15 -19 -20 -18 -4 0 -7 -3 -5 -8 1 -5 -3 -9 -9
-9 -8 0 -9 -4 0 -13 6 -8 9 -16 7 -18 -3 -2 6 -9 20 -16 13 -6 24 -7 24 -2 0
5 10 9 22 9 12 0 18 3 15 7 -4 3 -2 12 4 20 9 9 8 13 0 13 -6 0 -10 6 -8 13 1
6 -6 11 -15 9 -9 -1 -18 5 -20 15 -3 16 -5 16 -15 -2z"/>
<path d="M1610 1005 c0 -8 5 -15 10 -15 6 0 10 7 10 15 0 8 -4 15 -10 15 -5 0
-10 -7 -10 -15z"/>
<path d="M4806 978 c-22 -31 -20 -51 7 -76 60 -56 118 6 66 72 -25 32 -53 33
-73 4z"/>
<path d="M3400 829 c0 -5 -4 -8 -9 -5 -11 7 -22 -20 -15 -38 7 -18 38 -30 42
-17 2 5 10 7 19 4 11 -4 14 -2 9 5 -4 7 -2 12 4 12 8 0 8 6 0 20 -6 11 -15 18
-21 15 -5 -4 -9 -1 -9 4 0 6 -4 11 -10 11 -5 0 -10 -5 -10 -11z"/>
<path d="M3816 445 c-20 -20 -20 -20 -1 -39 17 -17 40 -12 49 9 2 7 -4 21 -13
30 -17 15 -20 15 -35 0z"/>
</g>
</svg>
